PathFileType	4	(X/Y/Z)	/Users/itak/Documents/Research/Walk-IL/dataset/trc/00575_00009.trc
DataRate	CameraRate	NumFrames	NumMarkers	Units	OrigDataRate	OrigDataStartFrame	OrigNumFrames
100.000000	100.000000	4	53	mm	100.000000	0	521
Frame#	Time	RPSI			LPSI			L3			STRN			T10			C7			CLAV			RBAK			LBAK			LSHO			LUPA			LAEL			LAOL			LWTS			LWPS			LFRA			LIFD			LHPS			LHTS			RSHO			RUPA			RAEL			RAOL			RWTS			RWPS			RFRA			RIFD			RHTS			RHPS			RBHD			RFHD			LBHD			LHIP			RHIP			RASI			LASI			LKNE			LTHI			LANK			LTIP			LTOE			LMT1			LMT5			LHEE			RKNE			RTHI			RANK			RTIP			RTOE			RMT1			RMT5			RHEE			LFHD			
		X1	Y1	Z1	X2	Y2	Z2	X3	Y3	Z3	X4	Y4	Z4	X5	Y5	Z5	X6	Y6	Z6	X7	Y7	Z7	X8	Y8	Z8	X9	Y9	Z9	X10	Y10	Z10	X11	Y11	Z11	X12	Y12	Z12	X13	Y13	Z13	X14	Y14	Z14	X15	Y15	Z15	X16	Y16	Z16	X17	Y17	Z17	X18	Y18	Z18	X19	Y19	Z19	X20	Y20	Z20	X21	Y21	Z21	X22	Y22	Z22	X23	Y23	Z23	X24	Y24	Z24	X25	Y25	Z25	X26	Y26	Z26	X27	Y27	Z27	X28	Y28	Z28	X29	Y29	Z29	X30	Y30	Z30	X31	Y31	Z31	X32	Y32	Z32	X33	Y33	Z33	X34	Y34	Z34	X35	Y35	Z35	X36	Y36	Z36	X37	Y37	Z37	X38	Y38	Z38	X39	Y39	Z39	X40	Y40	Z40	X41	Y41	Z41	X42	Y42	Z42	X43	Y43	Z43	X44	Y44	Z44	X45	Y45	Z45	X46	Y46	Z46	X47	Y47	Z47	X48	Y48	Z48	X49	Y49	Z49	X50	Y50	Z50	X51	Y51	Z51	X52	Y52	Z52	X53	Y53	Z53	

1	0	-1200.550048828125	1020.122619628906	-237.6804046630859	-1128.095458984375	1025.292602539062	-350.3300170898438	-1156.92529296875	1102.2373046875	-293.7171630859375	-961.339599609375	1298.367431640625	-180.8297729492188	-1170.535766601562	1228.412353515625	-300.3511962890625	-1147.0439453125	1504.333618164062	-271.3800964355469	-983.1312866210938	1409.299682617188	-193.5568542480469	-1242.644653320312	1374.664916992188	-229.1894836425781	-1131.242919921875	1450.52197265625	-367.2780151367188	-1007.102478027344	1477.949951171875	-393.7267150878906	-974.0587768554688	1351.267700195312	-465.3175354003906	-928.2401123046875	1133.213256835938	-471.7301025390625	-1029.078857421875	1119.181396484375	-474.2460327148438	-861.821044921875	896.0089721679688	-378.5519714355469	-860.0943603515625	871.7177734375	-462.3641662597656	-899.455078125	1048.949096679688	-464.3447265625	-859.0721435546875	726.1641845703125	-381.775634765625	-854.3187255859375	811.9156494140625	-450.6844177246094	-834.5919189453125	819.0576782226562	-386.1204528808594	-1170.12158203125	1468.42529296875	-106.8841171264648	-1217.340209960938	1402.452026367188	-55.68318939208984	-1231.047729492188	1111.814819335938	-17.27470397949219	-1268.382202148438	1094.681396484375	-65.76162719726562	-1090.01123046875	892.8762817382812	5.093146324157715	-1160.980590820312	870.9317016601562	42.96099090576172	-1224.2783203125	1056.61328125	-6.948837757110596	-1082.32421875	720.138671875	7.505099773406982	-1071.094116210938	801.415283203125	29.9327220916748	-1144.279174804688	797.0220336914062	48.73060989379883	-1126.726806640625	1685.237915039062	-183.6236724853516	-1009.425170898438	1722.615966796875	-117.1116943359375	-1032.23095703125	1686.867553710938	-319.4551391601562	-955.3012084960938	941.5343627929688	-396.7420043945312	-1166.5634765625	937.0655517578125	-74.15831756591797	-1059.428588867188	966.2603149414062	-75.55024719238281	-914.7142333984375	961.2385864257812	-310.0740356445312	-974.4297485351562	493.9895324707031	-355.3908081054688	-952.124755859375	659.333984375	-380.6212768554688	-1050.91748046875	33.70269775390625	-403.2865905761719	-1031.38330078125	252.8586883544922	-398.30517578125	-889.2492065429688	37.10476684570312	-255.0963745117188	-971.1387939453125	39.22041702270508	-257.549560546875	-934.029296875	34.81814575195312	-359.330322265625	-1137.386474609375	30.69366073608398	-385.7242126464844	-1135.639526367188	493.8958129882812	-125.4424819946289	-1137.6435546875	780.9381103515625	-63.29945373535156	-1189.19287109375	35.81019592285156	-198.6044464111328	-1132.268310546875	354.0187072753906	-141.0241241455078	-986.9495239257812	38.12065887451172	-98.77527618408203	-1013.8134765625	37.18207931518555	-172.5239105224609	-1093.95556640625	38.47082901000977	-104.1152877807617	-1201.323608398438	25.52070426940918	-273.6499328613281	-930.7537841796875	1724.387451171875	-240.3447570800781	
2	0.01	-1200.636352539062	1020.133972167969	-237.7730255126953	-1128.181396484375	1025.322509765625	-350.357666015625	-1157.0009765625	1102.233520507812	-293.7793884277344	-961.402099609375	1298.362182617188	-180.8285522460938	-1170.62109375	1228.42529296875	-300.3900756835938	-1147.085693359375	1504.348022460938	-271.4310302734375	-983.244873046875	1409.286376953125	-193.5457916259766	-1242.71533203125	1374.674194335938	-229.2816314697266	-1131.266967773438	1450.5361328125	-367.3084716796875	-1007.128051757812	1477.865844726562	-393.7154235839844	-974.136474609375	1351.209106445312	-465.2957153320312	-928.6214599609375	1133.062744140625	-471.7951049804688	-1029.500366210938	1119.188720703125	-474.2132263183594	-863.0160522460938	895.284912109375	-379.1883544921875	-861.22412109375	871.3710327148438	-463.1090393066406	-900.0344848632812	1048.702270507812	-464.60302734375	-860.5827026367188	725.391845703125	-382.6174011230469	-855.54248046875	811.583740234375	-451.6787719726562	-835.9241943359375	818.3311767578125	-386.94384765625	-1170.237915039062	1468.44091796875	-106.9412994384766	-1217.521850585938	1402.447265625	-55.76476287841797	-1231.277709960938	1111.836669921875	-17.39256477355957	-1268.5966796875	1094.72705078125	-65.91203308105469	-1090.471435546875	892.8795166015625	5.147359848022461	-1161.476806640625	870.934814453125	42.99850463867188	-1224.560913085938	1056.633422851562	-7.024092197418213	-1082.771484375	720.105712890625	7.478596210479736	-1071.533935546875	801.3310546875	29.96697616577148	-1144.7333984375	796.9978637695312	48.65898132324219	-1126.759521484375	1685.19189453125	-183.6647338867188	-1009.421691894531	1722.601684570312	-117.1128005981445	-1032.184326171875	1686.867431640625	-319.4700012207031	-955.3048706054688	941.5467529296875	-396.7433471679688	-1166.441650390625	937.0618286132812	-73.99720764160156	-1059.635620117188	966.258544921875	-75.56875610351562	-914.8482055664062	961.2050170898438	-310.0158386230469	-974.4336547851562	494.0010681152344	-355.3875122070312	-952.1423950195312	659.3728637695312	-380.5675354003906	-1050.910400390625	33.69691848754883	-403.2834167480469	-1031.40576171875	252.8494567871094	-398.3036804199219	-889.2559204101562	37.10417556762695	-255.1033630371094	-971.136962890625	39.21997451782227	-257.5490417480469	-934.0299072265625	34.82316207885742	-359.3298034667969	-1137.378662109375	30.69343185424805	-385.7296752929688	-1135.77197265625	493.8887939453125	-125.4504928588867	-1137.81103515625	780.9464111328125	-63.35583114624023	-1189.201782226562	35.79718017578125	-198.6031188964844	-1132.339233398438	354.0159301757812	-141.0618743896484	-986.967041015625	38.11782455444336	-98.77944946289062	-1013.828063964844	37.18488311767578	-172.523193359375	-1093.959716796875	38.47896194458008	-104.1193237304688	-1201.3349609375	25.50942993164062	-273.6512756347656	-930.68310546875	1724.346923828125	-240.3216247558594	
3	0.02	-1200.747802734375	1020.148498535156	-237.8784790039062	-1128.279663085938	1025.3583984375	-350.3931579589844	-1157.095458984375	1102.23095703125	-293.8515014648438	-961.4793090820312	1298.355590820312	-180.8278503417969	-1170.71826171875	1228.441528320312	-300.4381103515625	-1147.138549804688	1504.36669921875	-271.4967651367188	-983.3809814453125	1409.271850585938	-193.5350189208984	-1242.802001953125	1374.684326171875	-229.3907623291016	-1131.298706054688	1450.553466796875	-367.34765625	-1007.153991699219	1477.765502929688	-393.7077026367188	-974.2341918945312	1351.137329101562	-465.2721557617188	-929.1204833984375	1132.87548828125	-471.8837585449219	-1030.032836914062	1119.206298828125	-474.1850280761719	-864.47119140625	894.4187622070312	-379.9864196777344	-862.6245727539062	870.9486694335938	-464.0108032226562	-900.7827758789062	1048.397216796875	-464.9214477539062	-862.4465942382812	724.4471435546875	-383.6346435546875	-857.0775756835938	811.1704711914062	-452.879638671875	-837.6041259765625	817.42578125	-387.9582824707031	-1170.382202148438	1468.461791992188	-107.0135879516602	-1217.741333007812	1402.448364257812	-55.86798095703125	-1231.562377929688	1111.862060546875	-17.53792190551758	-1268.860717773438	1094.783447265625	-66.08920288085938	-1091.034912109375	892.8740234375	5.215737342834473	-1162.083984375	870.9400634765625	43.04280853271484	-1224.91552734375	1056.662353515625	-7.109589099884033	-1083.336303710938	720.062255859375	7.4523606300354	-1072.086547851562	801.2296142578125	30.01044654846191	-1145.308715820312	796.967041015625	48.59628677368164	-1126.791381835938	1685.156005859375	-183.708984375	-1009.417724609375	1722.584716796875	-117.1142959594727	-1032.128295898438	1686.869873046875	-319.4878845214844	-955.3014526367188	941.55712890625	-396.7390441894531	-1166.418579101562	937.061767578125	-73.86980438232422	-1059.892578125	966.2573852539062	-75.57905578613281	-915.0081787109375	961.1671142578125	-309.944091796875	-974.4559936523438	494.0206909179688	-355.381103515625	-952.1681518554688	659.4241333007812	-380.4920349121094	-1050.904907226562	33.69297790527344	-403.2804870605469	-1031.436767578125	252.8387908935547	-398.3028869628906	-889.262939453125	37.10409927368164	-255.1109619140625	-971.1355590820312	39.21958160400391	-257.5490112304688	-934.0315551757812	34.83065032958984	-359.3280334472656	-1137.373046875	30.69320297241211	-385.7331237792969	-1135.947631835938	493.8863220214844	-125.4516067504883	-1138.026123046875	780.9566040039062	-63.42634582519531	-1189.214477539062	35.78289413452148	-198.5997467041016	-1132.426025390625	354.0126342773438	-141.1025848388672	-986.9887084960938	38.11663055419922	-98.78406524658203	-1013.843811035156	37.188720703125	-172.5221557617188	-1093.964599609375	38.48676300048828	-104.1224212646484	-1201.346801757812	25.4923210144043	-273.6515502929688	-930.6016845703125	1724.297973632812	-240.295166015625	
4	0.03	-1200.880737304688	1020.165588378906	-237.9875946044922	-1128.383056640625	1025.3984375	-350.4351806640625	-1157.202880859375	1102.231323242188	-293.9285888671875	-961.5675048828125	1298.34765625	-180.828369140625	-1170.821411132812	1228.46044921875	-300.4934692382812	-1147.199951171875	1504.389038085938	-271.5751647949219	-983.5303955078125	1409.257202148438	-193.5271759033203	-1242.900390625	1374.695190429688	-229.5096435546875	-1131.337036132812	1450.572875976562	-367.3945922851562	-1007.176513671875	1477.655517578125	-393.7066345214844	-974.3477172851562	1351.056274414062	-465.2508239746094	-929.7243041992188	1132.66064453125	-471.9968566894531	-1030.665161132812	1119.237915039062	-474.1693725585938	-866.1027221679688	893.4688110351562	-380.9094543457031	-864.2299194335938	870.4752807617188	-465.0180358886719	-901.6768798828125	1048.048461914062	-465.2842102050781	-864.5685424804688	723.3897094726562	-384.7731628417969	-858.8622436523438	810.6937255859375	-454.2145690917969	-839.5527954101562	816.396240234375	-389.1149291992188	-1170.546752929688	1468.487426757812	-107.0976333618164	-1217.985595703125	1402.458862304688	-55.98894500732422	-1231.888305664062	1111.890380859375	-17.70087242126465	-1269.161254882812	1094.847900390625	-66.27909088134766	-1091.66943359375	892.8560180664062	5.294284820556641	-1162.766845703125	870.9473266601562	43.08839797973633	-1225.327392578125	1056.70068359375	-7.196022987365723	-1083.998657226562	720.0074462890625	7.434318542480469	-1072.729248046875	801.1176147460938	30.06230354309082	-1145.981201171875	796.930908203125	48.55363082885742	-1126.81787109375	1685.138671875	-183.7518463134766	-1009.413635253906	1722.566528320312	-117.1161270141602	-1032.066772460938	1686.8759765625	-319.5075073242188	-955.2884521484375	941.5609130859375	-396.7255249023438	-1166.526000976562	937.0675048828125	-73.80017852783203	-1060.188110351562	966.2569580078125	-75.57695770263672	-915.182861328125	961.1285400390625	-309.8638916015625	-974.4970092773438	494.0484313964844	-355.3727416992188	-952.2033081054688	659.48681640625	-380.39453125	-1050.902221679688	33.6919059753418	-403.2782897949219	-1031.475341796875	252.8283081054688	-398.3030700683594	-889.2692260742188	37.10486221313477	-255.1183471679688	-971.1347045898438	39.21927261352539	-257.5497131347656	-934.0340576171875	34.84032440185547	-359.3247680664062	-1137.370361328125	30.6930103302002	-385.7339477539062	-1136.161865234375	493.8906555175781	-125.4428939819336	-1138.281982421875	780.9679565429688	-63.50976943969727	-1189.231079101562	35.76878356933594	-198.5931854248047	-1132.525512695312	354.010009765625	-141.1423950195312	-987.0130004882812	38.11772155761719	-98.78811645507812	-1013.859741210938	37.19376373291016	-172.5208740234375	-1093.969848632812	38.49346923828125	-104.1245651245117	-1201.357666015625	25.46892738342285	-273.6501770019531	-930.5164184570312	1724.243774414062	-240.2675018310547	
